<svg xmlns="http://www.w3.org/2000/svg" width="533.333" height="533.333" fill="#DC3545" preserveAspectRatio="xMidYMid meet" version="1.0" viewBox="0 0 400 400"><g stroke="none"><path d="M63 3980 c-68 -41 -63 120 -63 -1982 0 -1870 0 -1904 20 -1935 41 -68 -120 -63 1982 -63 1870 0 1904 0 1935 20 68 41 63 -120 63 1980 0 2100 5 1939 -63 1980 -31 20 -65 20 -1937 20 -1872 0 -1906 0 -1937 -20z m1187 -730 l0 -500 -500 0 -500 0 0 500 0 500 500 0 500 0 0 -500z m1250 0 l0 -500 -500 0 -500 0 0 500 0 500 500 0 500 0 0 -500z m1250 0 l0 -500 -500 0 -500 0 0 500 0 500 500 0 500 0 0 -500z m-2500 -1250 l0 -500 -500 0 -500 0 0 500 0 500 500 0 500 0 0 -500z m1250 0 l0 -500 -500 0 -500 0 0 500 0 500 500 0 500 0 0 -500z m1250 0 l0 -500 -500 0 -500 0 0 500 0 500 500 0 500 0 0 -500z m-2500 -1250 l0 -500 -500 0 -500 0 0 500 0 500 500 0 500 0 0 -500z m1250 0 l0 -500 -500 0 -500 0 0 500 0 500 500 0 500 0 0 -500z m1250 0 l0 -500 -500 0 -500 0 0 500 0 500 500 0 500 0 0 -500z" transform="translate(0.000000,400.000000) scale(0.100000,-0.100000)"/></g></svg>