<svg version="1.0" xmlns="http://www.w3.org/2000/svg"
 width="470.000000pt" height="470.000000pt" viewBox="0 0 470.000000 470.000000"
 preserveAspectRatio="xMidYMid meet" fill="#DC3545">

<g transform="translate(0.000000,470.000000) scale(0.100000,-0.100000)" stroke="none">
<path d="M35 4665 l-25 -24 0 -2291 0 -2291 25 -24 24 -25 2291 0 2291 0 24
25 25 24 0 2291 0 2291 -25 24 -24 25 -2291 0 -2291 0 -24 -25z m720 -440 l0
-280 -280 0 -280 0 -3 270 c-1 148 0 275 3 283 3 10 64 12 282 10 l278 -3 0
-280z m750 0 l0 -280 -280 0 -280 0 -3 270 c-1 148 0 275 3 283 3 10 64 12
282 10 l278 -3 0 -280z m750 0 l0 -280 -280 0 -280 0 -3 270 c-1 148 0 275 3
283 3 10 64 12 282 10 l278 -3 0 -280z m750 0 l0 -280 -280 0 -280 0 -3 270
c-1 148 0 275 3 283 3 10 64 12 282 10 l278 -3 0 -280z m750 0 l0 -280 -280 0
-280 0 -3 270 c-1 148 0 275 3 283 3 10 64 12 282 10 l278 -3 0 -280z m750 0
l0 -280 -280 0 -280 0 -3 270 c-1 148 0 275 3 283 3 10 64 12 282 10 l278 -3
0 -280z m-3750 -750 l0 -280 -280 0 -280 0 -3 270 c-1 148 0 275 3 283 3 10
64 12 282 10 l278 -3 0 -280z m750 0 l0 -280 -280 0 -280 0 -3 270 c-1 148 0
275 3 283 3 10 64 12 282 10 l278 -3 0 -280z m750 0 l0 -280 -280 0 -280 0 -3
270 c-1 148 0 275 3 283 3 10 64 12 282 10 l278 -3 0 -280z m750 0 l0 -280
-280 0 -280 0 -3 270 c-1 148 0 275 3 283 3 10 64 12 282 10 l278 -3 0 -280z
m750 0 l0 -280 -280 0 -280 0 -3 270 c-1 148 0 275 3 283 3 10 64 12 282 10
l278 -3 0 -280z m750 0 l0 -280 -280 0 -280 0 -3 270 c-1 148 0 275 3 283 3
10 64 12 282 10 l278 -3 0 -280z m-3750 -750 l0 -280 -280 0 -280 0 -3 270
c-1 148 0 275 3 283 3 10 64 12 282 10 l278 -3 0 -280z m750 0 l0 -280 -280 0
-280 0 -3 270 c-1 148 0 275 3 283 3 10 64 12 282 10 l278 -3 0 -280z m750 0
l0 -280 -280 0 -280 0 -3 270 c-1 148 0 275 3 283 3 10 64 12 282 10 l278 -3
0 -280z m750 0 l0 -280 -280 0 -280 0 -3 270 c-1 148 0 275 3 283 3 10 64 12
282 10 l278 -3 0 -280z m750 0 l0 -280 -280 0 -280 0 -3 270 c-1 148 0 275 3
283 3 10 64 12 282 10 l278 -3 0 -280z m750 0 l0 -280 -280 0 -280 0 -3 270
c-1 148 0 275 3 283 3 10 64 12 282 10 l278 -3 0 -280z m-3750 -750 l0 -280
-280 0 -280 0 -3 270 c-1 148 0 275 3 283 3 10 64 12 282 10 l278 -3 0 -280z
m750 0 l0 -280 -280 0 -280 0 -3 270 c-1 148 0 275 3 283 3 10 64 12 282 10
l278 -3 0 -280z m750 0 l0 -280 -280 0 -280 0 -3 270 c-1 148 0 275 3 283 3
10 64 12 282 10 l278 -3 0 -280z m750 0 l0 -280 -280 0 -280 0 -3 270 c-1 148
0 275 3 283 3 10 64 12 282 10 l278 -3 0 -280z m750 0 l0 -280 -280 0 -280 0
-3 270 c-1 148 0 275 3 283 3 10 64 12 282 10 l278 -3 0 -280z m750 0 l0 -280
-280 0 -280 0 -3 270 c-1 148 0 275 3 283 3 10 64 12 282 10 l278 -3 0 -280z
m-3750 -750 l0 -280 -280 0 -280 0 -3 270 c-1 148 0 275 3 283 3 10 64 12 282
10 l278 -3 0 -280z m750 0 l0 -280 -280 0 -280 0 -3 270 c-1 148 0 275 3 283
3 10 64 12 282 10 l278 -3 0 -280z m750 0 l0 -280 -280 0 -280 0 -3 270 c-1
148 0 275 3 283 3 10 64 12 282 10 l278 -3 0 -280z m750 0 l0 -280 -280 0
-280 0 -3 270 c-1 148 0 275 3 283 3 10 64 12 282 10 l278 -3 0 -280z m750 0
l0 -280 -280 0 -280 0 -3 270 c-1 148 0 275 3 283 3 10 64 12 282 10 l278 -3
0 -280z m750 0 l0 -280 -280 0 -280 0 -3 270 c-1 148 0 275 3 283 3 10 64 12
282 10 l278 -3 0 -280z m-3750 -750 l0 -280 -280 0 -280 0 -3 270 c-1 148 0
275 3 283 3 10 64 12 282 10 l278 -3 0 -280z m750 0 l0 -280 -280 0 -280 0 -3
270 c-1 148 0 275 3 283 3 10 64 12 282 10 l278 -3 0 -280z m750 0 l0 -280
-280 0 -280 0 -3 270 c-1 148 0 275 3 283 3 10 64 12 282 10 l278 -3 0 -280z
m750 0 l0 -280 -280 0 -280 0 -3 270 c-1 148 0 275 3 283 3 10 64 12 282 10
l278 -3 0 -280z m750 0 l0 -280 -280 0 -280 0 -3 270 c-1 148 0 275 3 283 3
10 64 12 282 10 l278 -3 0 -280z m750 0 l0 -280 -280 0 -280 0 -3 270 c-1 148
0 275 3 283 3 10 64 12 282 10 l278 -3 0 -280z"/>
</g>
</svg>
