<svg xmlns="http://www.w3.org/2000/svg" xmlns:xlink="http://www.w3.org/1999/xlink" id="Layer_1" width="135" height="135" x="0" style="enable-background:new 0 0 135 135" y="0" version="1.1" viewBox="0 0 135 135" xml:space="preserve"><style type="text/css">.st188{fill:#fff}.st205{fill:#33363a}.st216{fill:#0086ff}.st224{fill:#d3eff4}.st232{fill:#d8e5ea}.st247{fill:#a7bbc1}</style><g><g><path d="M93.292,43.763c0-6.322-2.291-12.118-6.082-16.609V16.062c0-1.085-0.422-2.129-1.177-2.908 c-4.91-5.078-11.491-7.875-18.531-7.875c-14.22,0-25.789,11.569-25.789,25.788c0,0.799,0.045,1.623,0.137,2.49 c-0.093,0.346-0.142,0.71-0.142,1.078v78.424c0,1.495,0.798,2.877,2.093,3.625l21.608,12.477c0.647,0.373,1.37,0.56,2.093,0.56 s1.445-0.187,2.093-0.56l15.522-8.963c1.295-0.748,2.093-2.131,2.093-3.625V60.372C91.001,55.881,93.292,50.086,93.292,43.763z" class="st188"/></g><g><path d="M92.932,47.976c-0.772-4.672-2.792-8.926-5.722-12.396v-8.426v-2.664c0-1.088-0.422-2.13-1.177-2.91 c-4.91-5.078-11.491-7.875-18.531-7.875c-14.22,0-25.789,11.57-25.789,25.789c0,0.799,0.045,1.623,0.137,2.488 c-0.093,0.349-0.142,0.711-0.142,1.08v69.998c0,1.495,0.798,2.877,2.093,3.625l21.608,12.477c0.647,0.373,1.37,0.56,2.093,0.56 s1.445-0.187,2.093-0.56l15.522-8.963c1.295-0.748,2.093-2.131,2.093-3.625V68.798v-8.426 C90.14,56.901,92.159,52.646,92.932,47.976z" class="st224"/></g><g><path d="M67.502,131.221c-0.996,0-1.979-0.263-2.842-0.76l-21.609-12.478c-1.754-1.013-2.843-2.899-2.843-4.924 V34.636c0-0.397,0.042-0.792,0.124-1.179c-0.08-0.826-0.119-1.61-0.119-2.389c0-15.047,12.242-27.288,27.289-27.288 c7.45,0,14.414,2.959,19.609,8.333c1.03,1.063,1.599,2.467,1.599,3.951v10.551c3.926,4.848,6.082,10.916,6.082,17.149 s-2.156,12.301-6.082,17.149v55.662c0,2.024-1.089,3.911-2.843,4.924l-15.522,8.963C69.48,130.958,68.498,131.221,67.502,131.221z M67.502,6.779c-13.393,0-24.289,10.896-24.289,24.288c0,0.753,0.042,1.516,0.128,2.333c0.02,0.183,0.005,0.369-0.042,0.546 c-0.061,0.224-0.091,0.456-0.091,0.689v78.424c0,0.956,0.515,1.848,1.343,2.326l21.608,12.477c0.814,0.469,1.87,0.47,2.687-0.001 l15.521-8.962c0.828-0.479,1.343-1.37,1.343-2.326V60.372c0-0.354,0.125-0.697,0.354-0.968c3.694-4.376,5.729-9.931,5.729-15.642 s-2.034-11.266-5.729-15.642c-0.229-0.271-0.354-0.614-0.354-0.968V16.062c0-0.7-0.268-1.362-0.754-1.865 C80.33,9.414,74.132,6.779,67.502,6.779z" class="st205"/></g><g><g><circle cx="67.5" cy="42.989" r="14.387" class="st216"/></g><g><path d="M53.113,42.989c0,7.945,6.441,14.387,14.387,14.387s14.387-6.441,14.387-14.387H53.113z" class="st188"/></g><g><path d="M67.5,54.009c7.945,0,14.387-4.934,14.387-11.02H53.113C53.113,49.075,59.555,54.009,67.5,54.009z" class="st232"/></g><g><path d="M67.5,58.876c-8.76,0-15.887-7.127-15.887-15.887S58.74,27.103,67.5,27.103s15.887,7.127,15.887,15.887 S76.26,58.876,67.5,58.876z M67.5,30.103c-7.105,0-12.887,5.781-12.887,12.887S60.395,55.876,67.5,55.876 s12.887-5.781,12.887-12.887S74.605,30.103,67.5,30.103z" class="st205"/></g><g><path d="M81.887,44.489H53.113c-0.828,0-1.5-0.671-1.5-1.5s0.672-1.5,1.5-1.5h28.773c0.828,0,1.5,0.671,1.5,1.5 S82.715,44.489,81.887,44.489z" class="st205"/></g><g><g><circle cx="67.5" cy="44.637" r="4.757" class="st247"/></g><g><circle cx="67.5" cy="43.02" r="4.757" class="st188"/></g><g><path d="M64.137,46.384c-1.857-1.857-1.857-4.871,0-6.729s4.869-1.857,6.727,0" class="st232"/></g><g><path d="M67.5,49.276c-1.671,0-3.242-0.65-4.424-1.831c-2.44-2.44-2.44-6.41,0-8.85 c1.182-1.182,2.753-1.833,4.424-1.833s3.242,0.651,4.424,1.833c2.44,2.44,2.44,6.41,0,8.85 C70.742,48.625,69.171,49.276,67.5,49.276z M67.5,39.762c-0.87,0-1.688,0.339-2.303,0.954c-1.271,1.271-1.271,3.337,0,4.607 c1.23,1.229,3.375,1.229,4.605,0c1.271-1.27,1.271-3.336,0-4.607C69.188,40.101,68.37,39.762,67.5,39.762z" class="st205"/></g></g></g><g><g><path d="M67.5,67.475c-0.828,0-1.5-0.671-1.5-1.5v-7.063c0-0.829,0.672-1.5,1.5-1.5s1.5,0.671,1.5,1.5v7.063 C69,66.803,68.328,67.475,67.5,67.475z" class="st205"/></g><g><path d="M67.5,28.567c-0.828,0-1.5-0.671-1.5-1.5v-7.063c0-0.829,0.672-1.5,1.5-1.5s1.5,0.671,1.5,1.5v7.063 C69,27.896,68.328,28.567,67.5,28.567z" class="st205"/></g></g><g><path d="M52.523,91.661c-2.087,0-3.785-1.698-3.785-3.785s1.698-3.785,3.785-3.785s3.785,1.698,3.785,3.785 S54.61,91.661,52.523,91.661z M52.523,87.091c-0.433,0-0.785,0.352-0.785,0.785s0.353,0.785,0.785,0.785s0.785-0.352,0.785-0.785 S52.956,87.091,52.523,87.091z" class="st205"/></g><g><path d="M54.809,100.694h-4.57c-0.828,0-1.5-0.671-1.5-1.5s0.672-1.5,1.5-1.5h4.57c0.828,0,1.5,0.671,1.5,1.5 S55.637,100.694,54.809,100.694z" class="st205"/></g><g><path d="M54.809,107.496h-4.57c-0.828,0-1.5-0.671-1.5-1.5s0.672-1.5,1.5-1.5h4.57c0.828,0,1.5,0.671,1.5,1.5 S55.637,107.496,54.809,107.496z" class="st205"/></g></g></svg>